{
  "accessors": [
    {
      "bufferView": 2,
      "componentType": 5126,
      "count": 3891,
      "max": [
        63.02315902709961,
        79.12679290771484,
        62.769439697265625
      ],
      "min": [
        -47.62778091430664,
        -2.3076999187469482,
        -52.63922119140625
      ],
      "type": "VEC3"
    },
    {
      "bufferView": 2,
      "byteOffset": 46692,
      "componentType": 5126,
      "count": 3891,
      "max": [
        1.0,
        1.0,
        1.0
      ],
      "min": [
        -1.0,
        -1.0,
        -1.0
      ],
      "type": "VEC3"
    },
    {
      "bufferView": 1,
      "componentType": 5126,
      "count": 3891,
      "max": [
        0.9765899777412415,
        0.9836199879646301
      ],
      "min": [
        0.024730000644922256,
        0.025459999218583107
      ],
      "type": "VEC2"
    },
    {
      "bufferView": 0,
      "componentType": 5125,
      "count": 11214,
      "type": "SCALAR"
    }
  ],
  "asset": {
    "extras": {
      "author": "1catalogue (https://sketchfab.com/1catalogue)",
      "license": "CC-BY-4.0 (http://creativecommons.org/licenses/by/4.0/)",
      "source": "https://sketchfab.com/3d-models/atap-straw-house-f6dc892674be4265b0151f1534bee511",
      "title": "Atap (straw) house"
    },
    "generator": "Sketchfab-12.65.0",
    "version": "2.0"
  },
  "bufferViews": [
    {
      "buffer": 0,
      "byteLength": 44856,
      "name": "floatBufferViews",
      "target": 34963
    },
    {
      "buffer": 0,
      "byteLength": 31128,
      "byteOffset": 44856,
      "byteStride": 8,
      "name": "floatBufferViews",
      "target": 34962
    },
    {
      "buffer": 0,
      "byteLength": 93384,
      "byteOffset": 75984,
      "byteStride": 12,
      "name": "floatBufferViews",
      "target": 34962
    }
  ],
  "buffers": [
    {
      "byteLength": 169368,
      "uri": "scene.bin"
    }
  ],
  "images": [
    {
      "uri": "textures/atap_house_baseColor.png"
    }
  ],
  "materials": [
    {
      "alphaMode": "BLEND",
      "doubleSided": true,
      "name": "atap_house",
      "pbrMetallicRoughness": {
        "baseColorTexture": {
          "index": 0
        },
        "metallicFactor": 0.0,
        "roughnessFactor": 0.6
      }
    }
  ],
  "meshes": [
    {
      "name": "atap_house_0",
      "primitives": [
        {
          "attributes": {
            "NORMAL": 1,
            "POSITION": 0,
            "TEXCOORD_0": 2
          },
          "indices": 3,
          "material": 0,
          "mode": 4
        }
      ]
    }
  ],
  "nodes": [
    {
      "children": [
        1
      ],
      "matrix": [
        1.0,
        0.0,
        0.0,
        0.0,
        0.0,
        2.220446049250313e-16,
        -1.0,
        0.0,
        0.0,
        1.0,
        2.220446049250313e-16,
        0.0,
        0.0,
        0.0,
        0.0,
        1.0
      ],
      "name": "Sketchfab_model"
    },
    {
      "children": [
        2,
        4,
        6
      ],
      "name": "Root"
    },
    {
      "children": [
        3
      ],
      "matrix": [
        -0.6922300000000001,
        -0.46232000000000006,
        -0.5541400000000001,
        0.0,
        0.5504,
        -0.8348500000000001,
        0.008970000000000002,
        0.0,
        -0.46677,
        -0.29879,
        0.83237,
        0.0,
        4.0,
        1.0,
        8.0,
        1.0
      ],
      "name": "Lamp"
    },
    {
      "name": "Lamp"
    },
    {
      "children": [
        5
      ],
      "matrix": [
        0.07277000000000002,
        0.0,
        0.0,
        0.0,
        0.0,
        -0.0,
        0.07277000000000002,
        0.0,
        0.0,
        -0.07277000000000002,
        -0.0,
        0.0,
        0.0,
        0.0,
        0.0,
        1.0
      ],
      "name": "atap_house"
    },
    {
      "mesh": 0,
      "name": "atap_house_0"
    },
    {
      "children": [
        7
      ],
      "matrix": [
        -0.7286800000000001,
        0.53861,
        -0.42299000000000003,
        0.0,
        0.55398,
        0.8267000000000001,
        0.09833000000000003,
        0.0,
        0.40265,
        -0.16268000000000002,
        -0.90078,
        0.0,
        4.0,
        1.0,
        -2.47456,
        1.0
      ],
      "name": "Lamp.001"
    },
    {
      "name": "Lamp.001"
    }
  ],
  "samplers": [
    {
      "magFilter": 9729,
      "minFilter": 9987,
      "wrapS": 10497,
      "wrapT": 10497
    }
  ],
  "scene": 0,
  "scenes": [
    {
      "name": "Sketchfab_Scene",
      "nodes": [
        0
      ]
    }
  ],
  "textures": [
    {
      "sampler": 0,
      "source": 0
    }
  ]
}
